# xmcd
#
# Track frame offsets:
#	150
#	17925
#	37650
#	58875
#	79425
#	102825
#	128400
#	149625
#	172950
#	193575
#
# Disc length: 2841 seconds
#
# Revision: 1039004364
# Processed by: cddbd v1.5.2PL0 Copyright (c) Steve Scherf et al.
# Submitted via: EZCDAudioConverter 8.0.2.1
#
DISCID=840b170a
DTITLE=Various Artist - st. Đức Huy. Đường Xa Ướt Mưa
DYEAR=1996
DGENRE=
TTITLE0=Nguyễn Hưng - Đường Xa Ướt Mưa
TTITLE1=Thanh Hà - Mùa hè đẹp nhất
TTITLE2=Diễm Liên - Cơn mưa phùn
TTITLE3=Dalena, Henry Chúc - Một tình yêu
TTITLE4=Thế Sơn - Màu mắt nhung
TTITLE5=Thảo My - Đừng xa em đêm nay
TTITLE6=Hương Lan, Nguyễn Hưng - Như đã dấu yêu
TTITLE7=Kenny Thái - Để quên con tim
TTITLE8=Thanh Hà - Mùa thu ru em
TTITLE9=Hợp Ca - Đàn chim tha phương
EXTD=
EXTT0=
EXTT1=
EXTT2=
EXTT3=
EXTT4=
EXTT5=
EXTT6=
EXTT7=
EXTT8=
EXTT9=
PLAYORDER=
